<mxfile host="app.diagrams.net" modified="2024-05-20T14:51:21.385Z" agent="Mozilla/5.0 (X11; CrOS x86_64 14816.131.0) AppleWebKit/537.36 (KHTML, like Gecko) Chrome/103.0.0.0 Safari/537.36" etag="OBS5Xmqa2RfgWvvnAYXP" version="24.4.4" type="github">
  <diagram name="Página-1" id="FQsXb07NUA3dffucGcOr">
    <mxGraphModel dx="702" dy="410" grid="1" gridSize="10" guides="1" tooltips="1" connect="1" arrows="1" fold="1" page="1" pageScale="1" pageWidth="827" pageHeight="1169" math="0" shadow="0">
      <root>
        <mxCell id="0" />
        <mxCell id="1" parent="0" />
        <mxCell id="Tf0HCby5rB8_7GPnnAWr-18" value="" style="rounded=0;whiteSpace=wrap;html=1;" vertex="1" parent="1">
          <mxGeometry x="80" y="80" width="520" height="410" as="geometry" />
        </mxCell>
        <mxCell id="Tf0HCby5rB8_7GPnnAWr-1" value="Usuário" style="shape=umlActor;verticalLabelPosition=bottom;verticalAlign=top;html=1;" vertex="1" parent="1">
          <mxGeometry x="20" y="210" width="30" height="60" as="geometry" />
        </mxCell>
        <mxCell id="Tf0HCby5rB8_7GPnnAWr-2" value="Criar Tarefas" style="ellipse;whiteSpace=wrap;html=1;" vertex="1" parent="1">
          <mxGeometry x="160" y="110" width="140" height="70" as="geometry" />
        </mxCell>
        <mxCell id="Tf0HCby5rB8_7GPnnAWr-3" value="Atualizar Tarefas" style="ellipse;whiteSpace=wrap;html=1;" vertex="1" parent="1">
          <mxGeometry x="160" y="200" width="140" height="70" as="geometry" />
        </mxCell>
        <mxCell id="Tf0HCby5rB8_7GPnnAWr-4" value="Excluir Tarefas" style="ellipse;whiteSpace=wrap;html=1;" vertex="1" parent="1">
          <mxGeometry x="160" y="380" width="140" height="70" as="geometry" />
        </mxCell>
        <mxCell id="Tf0HCby5rB8_7GPnnAWr-5" value="" style="endArrow=none;html=1;rounded=0;exitX=0;exitY=0.5;exitDx=0;exitDy=0;" edge="1" parent="1" source="Tf0HCby5rB8_7GPnnAWr-3" target="Tf0HCby5rB8_7GPnnAWr-1">
          <mxGeometry width="50" height="50" relative="1" as="geometry">
            <mxPoint x="250" y="270" as="sourcePoint" />
            <mxPoint x="50" y="220" as="targetPoint" />
          </mxGeometry>
        </mxCell>
        <mxCell id="Tf0HCby5rB8_7GPnnAWr-6" value="" style="endArrow=none;html=1;rounded=0;exitX=0.017;exitY=0.696;exitDx=0;exitDy=0;exitPerimeter=0;" edge="1" parent="1" source="Tf0HCby5rB8_7GPnnAWr-2" target="Tf0HCby5rB8_7GPnnAWr-1">
          <mxGeometry width="50" height="50" relative="1" as="geometry">
            <mxPoint x="170" y="190" as="sourcePoint" />
            <mxPoint x="50" y="220" as="targetPoint" />
          </mxGeometry>
        </mxCell>
        <mxCell id="Tf0HCby5rB8_7GPnnAWr-7" value="" style="endArrow=none;html=1;rounded=0;exitX=0;exitY=0.5;exitDx=0;exitDy=0;entryX=1;entryY=0.3333333333333333;entryDx=0;entryDy=0;entryPerimeter=0;" edge="1" parent="1" source="Tf0HCby5rB8_7GPnnAWr-4" target="Tf0HCby5rB8_7GPnnAWr-15">
          <mxGeometry width="50" height="50" relative="1" as="geometry">
            <mxPoint x="180" y="255" as="sourcePoint" />
            <mxPoint x="50" y="220" as="targetPoint" />
          </mxGeometry>
        </mxCell>
        <mxCell id="Tf0HCby5rB8_7GPnnAWr-8" value="Enviar E-mail" style="ellipse;whiteSpace=wrap;html=1;" vertex="1" parent="1">
          <mxGeometry x="414" y="110" width="140" height="70" as="geometry" />
        </mxCell>
        <mxCell id="Tf0HCby5rB8_7GPnnAWr-10" value="&amp;lt;&amp;lt;include&amp;gt;&amp;gt;" style="endArrow=open;endSize=12;dashed=1;html=1;rounded=0;exitX=0;exitY=0.5;exitDx=0;exitDy=0;entryX=1;entryY=0.5;entryDx=0;entryDy=0;" edge="1" parent="1" source="Tf0HCby5rB8_7GPnnAWr-8" target="Tf0HCby5rB8_7GPnnAWr-2">
          <mxGeometry width="160" relative="1" as="geometry">
            <mxPoint x="340" y="150" as="sourcePoint" />
            <mxPoint x="320" y="170" as="targetPoint" />
          </mxGeometry>
        </mxCell>
        <mxCell id="Tf0HCby5rB8_7GPnnAWr-11" value="Verificar Data&amp;nbsp;&lt;span style=&quot;background-color: initial;&quot;&gt;de&lt;/span&gt;&lt;div&gt;&lt;span style=&quot;background-color: initial;&quot;&gt;Inclusão&lt;/span&gt;&lt;/div&gt;" style="ellipse;whiteSpace=wrap;html=1;" vertex="1" parent="1">
          <mxGeometry x="414" y="290" width="140" height="70" as="geometry" />
        </mxCell>
        <mxCell id="Tf0HCby5rB8_7GPnnAWr-12" value="Verificar Tarefa" style="ellipse;whiteSpace=wrap;html=1;" vertex="1" parent="1">
          <mxGeometry x="160" y="290" width="140" height="70" as="geometry" />
        </mxCell>
        <mxCell id="Tf0HCby5rB8_7GPnnAWr-13" value="&amp;lt;&amp;lt;extend&amp;gt;&amp;gt;" style="endArrow=open;endSize=12;dashed=1;html=1;rounded=0;entryX=1;entryY=0.5;entryDx=0;entryDy=0;exitX=0;exitY=0.5;exitDx=0;exitDy=0;" edge="1" parent="1" source="Tf0HCby5rB8_7GPnnAWr-11" target="Tf0HCby5rB8_7GPnnAWr-12">
          <mxGeometry width="160" relative="1" as="geometry">
            <mxPoint x="254" y="414.5" as="sourcePoint" />
            <mxPoint x="414" y="414.5" as="targetPoint" />
          </mxGeometry>
        </mxCell>
        <mxCell id="Tf0HCby5rB8_7GPnnAWr-14" value="" style="endArrow=none;html=1;rounded=0;entryX=0;entryY=0.5;entryDx=0;entryDy=0;" edge="1" parent="1" source="Tf0HCby5rB8_7GPnnAWr-1" target="Tf0HCby5rB8_7GPnnAWr-12">
          <mxGeometry width="50" height="50" relative="1" as="geometry">
            <mxPoint x="250" y="270" as="sourcePoint" />
            <mxPoint x="300" y="220" as="targetPoint" />
          </mxGeometry>
        </mxCell>
        <mxCell id="Tf0HCby5rB8_7GPnnAWr-15" value="Usuário&lt;div&gt;Premium&lt;/div&gt;" style="shape=umlActor;verticalLabelPosition=bottom;verticalAlign=top;html=1;" vertex="1" parent="1">
          <mxGeometry x="20" y="390" width="30" height="60" as="geometry" />
        </mxCell>
        <mxCell id="Tf0HCby5rB8_7GPnnAWr-16" value="Extends" style="endArrow=block;endSize=16;endFill=0;html=1;rounded=0;" edge="1" parent="1" source="Tf0HCby5rB8_7GPnnAWr-15">
          <mxGeometry x="-0.25" width="160" relative="1" as="geometry">
            <mxPoint x="70" y="390" as="sourcePoint" />
            <mxPoint x="35" y="290" as="targetPoint" />
            <mxPoint as="offset" />
          </mxGeometry>
        </mxCell>
      </root>
    </mxGraphModel>
  </diagram>
</mxfile>
